<svg viewBox="0 0 96 96" xmlns="http://www.w3.org/2000/svg" xmlns:xlink="http://www.w3.org/1999/xlink" id="Icons_Naturopathy" overflow="hidden"><path d="M15.251 26.724 18.49 35.793 28 35.793 21.016 24.154C22.8209 21.4411 22.0848 17.7786 19.3718 15.9737 16.6589 14.1688 12.9965 14.905 11.1916 17.6179 9.38667 20.3309 10.1228 23.9933 12.8357 25.7982 13.5624 26.2816 14.3873 26.5978 15.251 26.724Z"/><path d="M40.639 55.374 41.615 52.463 44.679 52.652C45.74 52.718 55.179 53.486 59.679 60.17 60.0514 60.727 60.3814 61.3114 60.666 61.918 67.2454 56.0524 71.0056 47.6554 71 38.841L9 38.841C8.99611 50.2161 15.2236 60.6793 25.224 66.1 24.0613 68.4175 23.4553 70.9742 23.454 73.567L43.134 73.567C42.7129 73.106 42.325 72.6157 41.973 72.1 37.469 65.416 40.3 56.382 40.639 55.374Z"/><path d="M69.946 58.32C65.381 61.396 63.767 67.511 63.218 70.72 61.1905 71.6836 59.449 73.1587 58.165 75 58.0203 74.6302 57.8534 74.2696 57.665 73.92 58.239 71.289 58.882 66.15 56.359 62.406 52.828 57.165 44.429 56.646 44.429 56.646 44.429 56.646 41.756 64.625 45.287 69.866 47.573 73.259 51.896 74.672 54.663 75.247 55.2508 76.3637 55.6239 77.5807 55.763 78.835 55.7803 79.3466 55.7289 79.8581 55.61 80.356L58.922 81C59.2518 79.6148 59.8378 78.3036 60.65 77.134 61.7499 75.422 63.3762 74.1137 65.284 73.406 68.549 74.085 74.579 74.747 79.005 71.765 85.37 67.476 86.005 57.278 86.005 57.278 86.005 57.278 76.311 54.031 69.946 58.32Z"/></svg>