<svg width="96" height="96" xmlns="http://www.w3.org/2000/svg" xmlns:xlink="http://www.w3.org/1999/xlink" xml:space="preserve" overflow="hidden"><g transform="translate(-958 -350)"><path d="M1046 384.5C1046 391.404 1040.4 397 1033.5 397 1026.6 397 1021 391.404 1021 384.5 1021 377.596 1026.6 372 1033.5 372 1040.4 372 1046 377.596 1046 384.5Z"/><path d="M976 409C976 410.6 976.6 412 977.6 413.1 975.2 411.9 974 409.8 974 406 974 398.6 980.8 397.6 990 397L990 410.8 988 407C986.7 404.4 984.8 403 982 403 978.7 403 976 405.7 976 409ZM967 421C967 423.2 968.8 425 971 425L991 425C992.5 425 994 424.1 994.6 422.7 995.3 421.3 994.9 419.7 994.1 418.5L992.7 416 991.9 414.5 1016.2 407.8 1017.1 412.7C1017.2 413.5 1017.6 414.3 1018.2 414.8L1027.2 423.8C1028 424.6 1029 425 1030 425 1031 425 1032 424.6 1032.8 423.8 1034.4 422.2 1034.4 419.7 1032.8 418.1L1024.7 410 1021.9 394.2C1021.6 392.3 1019.9 390.9 1018 390.9L990 392.9C982.2 393.4 970 394.2 970 405.9 970 412.2 972.8 415.3 976.7 416.9L971 416.9C968.8 417 967 418.8 967 421Z"/></g></svg>