<svg viewBox="0 0 96 96" xmlns="http://www.w3.org/2000/svg" xmlns:xlink="http://www.w3.org/1999/xlink" id="Icons_Shower" overflow="hidden"><path d="M53 27.7C46.2 29.7 41.6 36 41.6 43L73.6 43C73.6 35.5 68.4 29.1 61.2 27.4 58.8 15.3 47.6 7 35.3 8.1 23 9.3 13.6 19.7 13.6 32L13.6 88 21.6 88 21.6 32C21.7 24.1 27.5 17.4 35.4 16.3 43.3 15.2 50.8 20 53 27.7Z"/><path d="M74.6 47 40.6 47C38.9 47 37.6 48.3 37.6 50 37.6 51.7 38.9 53 40.6 53L74.6 53C76.3 53 77.6 51.7 77.6 50 77.6 48.3 76.3 47 74.6 47Z"/><path d="M58.5 88.2C57.4 88.2 56.5 87.3 56.5 86.2L56.5 59.2C56.5 58.1 57.4 57.2 58.5 57.2 59.6 57.2 60.5 58.1 60.5 59.2L60.5 86.2C60.5 87.3 59.6 88.2 58.5 88.2Z"/><path d="M70.5 88C69.5 88 68.6 87.3 68.5 86.3L64.5 59.6C64.3 58.5 65.1 57.5 66.2 57.3 67.3 57.1 68.3 57.9 68.5 59L72.5 85.7C72.6 86.2 72.4 86.8 72.1 87.2 71.8 87.6 71.3 87.9 70.8 88L70.5 88Z"/><path d="M82.4 87C81.5 87 80.7 86.4 80.5 85.6L72.6 59.8C72.3 58.8 72.9 57.7 74 57.4 75 57.1 76.1 57.6 76.5 58.6L84.4 84.4C84.6 85 84.5 85.7 84.1 86.2 83.6 86.7 83 87 82.4 87Z"/><path d="M46.4 88 46.1 88C45 87.8 44.3 86.8 44.4 85.7L48.4 59C48.6 57.9 49.6 57.1 50.7 57.3 51.8 57.5 52.6 58.5 52.4 59.6L48.4 86.3C48.3 87.3 47.4 88 46.4 88Z"/><path d="M34.5 87C33.9 87 33.3 86.7 32.9 86.2 32.5 85.7 32.4 85 32.6 84.4L40.5 58.6C40.9 57.6 41.9 57.1 43 57.4 44 57.7 44.6 58.8 44.4 59.8L36.5 85.6C36.2 86.4 35.4 87 34.5 87Z"/></svg>