<svg width="96" height="96" xmlns="http://www.w3.org/2000/svg" xmlns:xlink="http://www.w3.org/1999/xlink" xml:space="preserve" overflow="hidden"><g transform="translate(-454 -279)"><path d="M481 311C481 312.105 480.105 313 479 313 477.895 313 477 312.105 477 311 477 309.895 477.895 309 479 309 480.105 309 481 309.895 481 311Z"/><path d="M481 319C481 320.105 480.105 321 479 321 477.895 321 477 320.105 477 319 477 317.895 477.895 317 479 317 480.105 317 481 317.895 481 319Z"/><path d="M477 315C477 316.105 476.105 317 475 317 473.895 317 473 316.105 473 315 473 313.895 473.895 313 475 313 476.105 313 477 313.895 477 315Z"/><path d="M485 315C485 316.105 484.105 317 483 317 481.895 317 481 316.105 481 315 481 313.895 481.895 313 483 313 484.105 313 485 313.895 485 315Z"/><path d="M509 307C509 308.105 508.105 309 507 309 505.895 309 505 308.105 505 307 505 305.895 505.895 305 507 305 508.105 305 509 305.895 509 307Z"/><path d="M509 315C509 316.105 508.105 317 507 317 505.895 317 505 316.105 505 315 505 313.895 505.895 313 507 313 508.105 313 509 313.895 509 315Z"/><path d="M505 311C505 312.105 504.105 313 503 313 501.895 313 501 312.105 501 311 501 309.895 501.895 309 503 309 504.105 309 505 309.895 505 311Z"/><path d="M513 311C513 312.105 512.105 313 511 313 509.895 313 509 312.105 509 311 509 309.895 509.895 309 511 309 512.105 309 513 309.895 513 311Z"/><path d="M536 324 530 330 522 330 522 352 530 352 536 358 542 358 542 324Z"/><path d="M507 320C502 320 498 316 498 311 498 306 502 302 507 302 512 302 516 306 516 311 516 316 512 320 507 320ZM510 352C508.9 352 508 351.1 508 350 508 348.9 508.9 348 510 348 511.1 348 512 348.9 512 350 512 351.1 511.1 352 510 352ZM491 324C492.3 322.2 493.3 320.2 493.7 317.9 495 320.4 497.1 322.5 499.5 324L491 324ZM479 324C474 324 470 320 470 315 470 310 474 306 479 306 484 306 488 310 488 315 488 320 484 324 479 324ZM514.4 324C518.9 321.4 522 316.6 522 311 522 302.7 515.3 296 507 296 499.7 296 493.7 301.2 492.3 308.1 489.8 303.3 484.8 300 479 300 470.7 300 464 306.7 464 315 464 319.9 466.4 324.2 470 327L470 330 468 330 466 328 462 328 462 338 466 338 468 336 470 336 470 354C470 356.2 471.8 358 474 358L514 358C516.2 358 518 356.2 518 354L518 328C518 325.9 516.4 324.2 514.4 324Z"/></g></svg>