<svg viewBox="0 0 96 96" xmlns="http://www.w3.org/2000/svg" xmlns:xlink="http://www.w3.org/1999/xlink" id="Icons_SteeringWheel" overflow="hidden"><path d="M48.006 10C27.0192 10 10.006 27.0132 10.006 48 10.006 68.9868 27.0192 86 48.006 86 68.9928 86 86.006 68.9868 86.006 48 86.006 27.0132 68.9928 10 48.006 10ZM52.191 77.7 54.506 61.5C50.4044 63.504 45.6077 63.504 41.506 61.5L43.82 77.7C27.4256 75.4017 15.9984 60.2482 18.2968 43.8538 18.4874 42.4943 18.7711 41.1496 19.146 39.829L33.054 48.956C33.034 48.638 33.006 48.323 33.006 48 33.0083 43.6881 34.8717 39.587 38.118 36.749L22.64 32.013C31.4501 18.0037 49.9488 13.789 63.958 22.599 67.7622 24.9914 70.9796 28.2088 73.372 32.013L57.893 36.749C61.1399 39.5867 63.0037 43.6879 63.006 48 63.006 48.323 62.978 48.638 62.958 48.956L76.866 39.829C81.3871 55.7544 72.142 72.3296 56.2166 76.8507 54.8958 77.2256 53.5507 77.5094 52.191 77.7Z"/><path d="M48.006 37C41.9309 37 37.006 41.9249 37.006 48 37.006 54.0751 41.9309 59 48.006 59 54.0811 59 59.006 54.0751 59.006 48 58.9994 41.9276 54.0784 37.0066 48.006 37ZM48.006 53C45.2446 53 43.006 50.7614 43.006 48 43.006 45.2386 45.2446 43 48.006 43 50.7674 43 53.006 45.2386 53.006 48 53.0027 50.7601 50.7661 52.9967 48.006 53Z"/></svg>