<svg viewBox="0 0 96 96" xmlns="http://www.w3.org/2000/svg" xmlns:xlink="http://www.w3.org/1999/xlink" id="Icons_PersonEating" overflow="hidden"><path d="M83 44 39 44C37.3431 44 36 45.3431 36 47 36 48.6569 37.3431 50 39 50L58 50 58 77 52 77 52 83 70 83 70 77 64 77 64 50 83 50C84.6569 50 86 48.6569 86 47 86 45.3431 84.6569 44 83 44Z"/><path d="M35 63 16 63 16 36C16 34.3431 14.6569 33 13 33 11.3431 33 10 34.3431 10 36L10 66C10 67.6569 11.3431 69 13 69L21 69 21 77 15 77 15 83 33 83 33 77 27 77 27 69 35 69C36.6569 69 38 67.6569 38 66 38 64.3431 36.6569 63 35 63Z"/><path d="M35.45 40.34C36.0331 40.7601 36.7314 40.9906 37.45 41L47.45 41C49.383 41 50.95 39.433 50.95 37.5 50.95 35.567 49.383 34 47.45 34L38.63 34 30.74 28.29C29.2673 26.9477 27.2923 26.2966 25.31 26.5 21.6801 26.92 18.9553 30.0162 19 33.67L19 53C19 56.866 22.134 60 26 60L42 60 42 77.5C42 79.433 43.567 81 45.5 81 47.433 81 49 79.433 49 77.5L49 56.5C49 54.567 47.433 53 45.5 53L33 53 33 38.56Z"/><circle cx="26" cy="17" r="7"/><path d="M52.79 39C52.5974 39.7282 52.257 40.409 51.79 41L60 41C61.1046 41 62 40.1046 62 39Z"/><path d="M48 27 48.59 32.11C50.9794 32.5858 52.7728 34.5743 53 37L53.88 37 55 27Z"/></svg>