<svg viewBox="0 0 96 96" xmlns="http://www.w3.org/2000/svg" xmlns:xlink="http://www.w3.org/1999/xlink" id="Icons_GymnastRings" overflow="hidden"><path d="M82.66 21.17 79.25 5 75.17 5 78.61 21.36C76.7055 21.9734 75.0954 23.27 74.09 25L21.91 25C20.9046 23.27 19.2945 21.9734 17.39 21.36L20.83 5 16.75 5 13.34 21.17C9.01711 22.0831 6.25295 26.3278 7.16608 30.6507 8.07921 34.9735 12.3238 37.7377 16.6467 36.8246 18.8674 36.3555 20.7844 34.9652 21.92 33L39 33 39 87C39 89.2091 40.7909 91 43 91 45.2091 91 47 89.2091 47 87L47 58 49 58 49 87C49 89.2091 50.7909 91 53 91 55.2091 91 57 89.2091 57 87L57 33 74.08 33C76.2906 36.8255 81.1839 38.1346 85.0094 35.9239 88.8348 33.7133 90.1439 28.82 87.9333 24.9946 86.7976 23.0294 84.8807 21.6391 82.66 21.17ZM11 29C11.0101 26.7909 12.8092 25.0083 15.0183 25.0184 15.9121 25.0225 16.7787 25.3258 17.48 25.88 15.7569 27.2624 15.4807 29.78 16.8631 31.5031 17.0456 31.7306 17.2525 31.9375 17.48 32.12 15.7467 33.4897 13.2313 33.1949 11.8616 31.4617 11.3074 30.7604 11.0041 29.8938 11 29ZM81 33C80.0977 32.9948 79.2238 32.6846 78.52 32.12 80.2431 30.7376 80.5193 28.22 79.1369 26.4969 78.9544 26.2694 78.7475 26.0625 78.52 25.88 80.2432 24.4976 82.7607 24.7739 84.1431 26.497 85.5255 28.2202 85.2492 30.7377 83.5261 32.1201 82.81 32.6946 81.918 33.0053 81 33Z"/><circle cx="48" cy="15" r="8" id="_16x16_circle_head"/></svg>