<svg width="96" height="96" xmlns="http://www.w3.org/2000/svg" xmlns:xlink="http://www.w3.org/1999/xlink" xml:space="preserve" overflow="hidden"><g transform="translate(-566 -68)"><path d="M647.3 107.6 647.6 107.9C648.2 108.5 649 108.5 649.6 107.9 650.2 107.3 650.2 106.5 649.6 105.9L649.3 105.6 634.7 91 636.7 89 651.3 103.5 651.6 103.8C652.2 104.4 653 104.4 653.6 103.8 654.2 103.2 654.2 102.4 653.6 101.8 653.5 101.8 640 85.7 640 85.7L632.7 77.1C631.2 75.6 628.9 75.6 627.4 77.1L575.1 129.4C573.6 130.9 573.6 133.2 575.1 134.7L583.7 142C583.7 142 599.8 155.5 599.9 155.5 600.5 156.1 601.3 156.1 601.9 155.5 602.5 154.9 602.5 154.1 601.9 153.5L601.6 153.2 587 138.7 589 136.7 603.5 151.3 603.8 151.6C604.4 152.2 605.2 152.2 605.8 151.6 606.4 151 606.4 150.2 605.8 149.6L605.5 149.3 591 134.7 593 132.7 607.5 147.3 607.8 147.6C608.4 148.2 609.2 148.2 609.8 147.6 610.4 147 610.4 146.2 609.8 145.6L609.5 145.3 595 130.8 597 128.8 611.5 143.4 611.8 143.7C612.4 144.3 613.2 144.3 613.8 143.7 614.4 143.1 614.4 142.3 613.8 141.7L613.5 141.4 598.9 126.8 600.9 124.8 615.5 139.4 615.8 139.7C616.4 140.3 617.2 140.3 617.8 139.7 618.4 139.1 618.4 138.3 617.8 137.7L617.5 137.4 602.9 122.8 604.9 120.8 619.5 135.4 619.8 135.7C620.4 136.3 621.2 136.3 621.8 135.7 622.4 135.1 622.4 134.3 621.8 133.7L621.5 133.4 606.9 118.8 608.9 116.8 623.5 131.4 623.8 131.7C624.2 132.1 624.7 132.2 625.2 132.1 625.7 132 626.1 131.6 626.2 131.1 626.3 130.6 626.2 130.1 625.8 129.7L625.5 129.4 610.9 114.9 612.9 112.9 627.5 127.5 627.8 127.8C628.4 128.4 629.2 128.4 629.8 127.8 630.4 127.2 630.4 126.4 629.8 125.8L629.5 125.5 614.8 110.9 616.8 108.9 631.4 123.5 631.7 123.8C632.3 124.4 633.1 124.4 633.7 123.8 634.3 123.2 634.3 122.4 633.7 121.8L633.4 121.5 618.8 106.9 620.8 104.9 635.4 119.5 635.7 119.8C636.3 120.4 637.1 120.4 637.7 119.8 638.3 119.2 638.3 118.4 637.7 117.8L637.4 117.5 622.8 103 624.8 101 639.4 115.6 639.7 115.9C640.3 116.5 641.1 116.5 641.7 115.9 642.3 115.3 642.3 114.5 641.7 113.9L641.4 113.6 626.8 99 628.8 97 643.4 111.6 643.7 111.9C644.3 112.5 645.1 112.5 645.7 111.9 646.3 111.3 646.3 110.5 645.7 109.9L645.4 109.6 630.7 95 632.7 93 647.3 107.6Z"/></g></svg>