<svg width="96" height="96" xmlns="http://www.w3.org/2000/svg" xmlns:xlink="http://www.w3.org/1999/xlink" xml:space="preserve" overflow="hidden"><g transform="translate(-766 -526)"><path d="M814 540C793 540 776 557 776 578L776 596C776 597.7 777.3 599 779 599 780.7 599 782 597.7 782 596L782 595 786 595 786 604C786 606.2 787.8 608 790 608L796 608C798.2 608 800 606.2 800 604L800 582C800 579.8 798.2 578 796 578L790 578C787.8 578 786 579.8 786 582L786 591 782 591 782 578C782 560.4 796.4 546 814 546 831.6 546 846 560.4 846 578L846 591 842 591 842 582C842 579.8 840.2 578 838 578L832 578C829.8 578 828 579.8 828 582L828 604C828 606.2 829.8 608 832 608L838 608C840.2 608 842 606.2 842 604L842 595 846 595 846 596C846 597.7 847.3 599 849 599 850.7 599 852 597.7 852 596L852 578C852 557 835 540 814 540Z"/></g></svg>