<svg width="96" height="96" xmlns="http://www.w3.org/2000/svg" xmlns:xlink="http://www.w3.org/1999/xlink" xml:space="preserve" overflow="hidden"><g transform="translate(-526 -304)"><path d="M608 387.6 588 368.6 608 349.6 608 387.6ZM543.2 390 563 371.3 564.4 370C569.8 364.9 578.3 364.9 583.7 370L585.1 371.3 604.8 390 543.2 390ZM540 349.5 560 368.5 540 387.5 540 349.5ZM554 324 594 324 594 357.3 585 365.9C578.5 360.9 569.5 360.9 563 365.9L554 357.3 554 324ZM600 326.7 600 318 586 318 574 308 562 318 548 318 548 326.8 534 340.1 534 396 614 396 614 340.1 600 326.7Z"/><path d="M574 346.3C572.2 346.3 570.8 344.8 570.8 343.1 570.8 341.3 572.3 339.9 574 339.9 575.8 339.9 577.2 341.3 577.2 343.1 577.2 344.9 575.8 346.3 574 346.3ZM574 356C576.3 356 578.5 355.4 580.5 354.4 581.3 353.9 581.6 352.9 581.2 352.1 580.7 351.3 579.7 351 578.9 351.4 577.4 352.2 575.7 352.6 574 352.6 568.7 352.6 564.3 348.2 564.4 342.9 564.4 337.6 568.8 333.2 574.1 333.2 579.4 333.2 583.8 337.5 583.8 342.9L583.8 346.1C582 346.1 580.6 344.7 580.6 342.9 580.6 339.7 578.4 337 575.3 336.4 572.2 335.8 569.1 337.5 568 340.4 566.9 343.3 568 346.7 570.7 348.3 573.4 349.9 576.9 349.4 579 347 580.2 348.4 582 349.2 583.9 349.2 585.7 349.2 587.1 347.8 587.1 346L587.1 342.8C587.1 335.6 581.3 329.8 574.1 329.8 566.9 329.8 561.1 335.6 561.1 342.8 561 350.1 566.8 355.9 574 356Z"/></g></svg>