<svg width="96" height="96" xmlns="http://www.w3.org/2000/svg" xmlns:xlink="http://www.w3.org/1999/xlink" xml:space="preserve" overflow="hidden"><g transform="translate(-984 -275)"><path d="M1052.5 322C1052.1 322 1051.8 322 1051.4 322.1 1051.1 320.9 1050.3 319.8 1049 319.3L1040.5 315.9 1035 303.2 1035 303.2C1033.9 300.2 1031 298 1027.5 298 1025.7 298 1024.1 298.6 1022.8 299.5L1022.8 299.5 1009.3 308.6C1008.5 309.2 1007.9 310 1007.6 311L1004.6 324C1004.1 326.2 1005.4 328.3 1007.6 328.8 1007.9 328.9 1008.2 328.9 1008.5 328.9 1010.3 328.9 1012 327.6 1012.4 325.8L1015 314.4 1017.5 312.7C1016.5 319.5 1016.4 324.9 1016.4 325.8L1015.4 343.3 1011.5 361C1011 363.2 1012.4 365.3 1014.5 365.8 1014.8 365.9 1015.1 365.9 1015.4 365.9 1017.2 365.9 1018.9 364.6 1019.3 362.8L1023.3 344.8C1023.3 344.6 1023.4 344.4 1023.4 344.2L1023.9 334.4 1030.4 341.6 1031.3 360.2C1031.4 362.3 1033.2 364 1035.3 364 1035.4 364 1035.4 364 1035.5 364 1037.7 363.9 1039.4 362 1039.3 359.8L1038.3 339.8C1038.3 338.9 1037.9 338 1037.3 337.3L1030.3 329.6 1030.3 313.4C1030.3 313.4 1030.4 313.4 1030.4 313.3L1033.6 320.6C1034 321.6 1034.8 322.3 1035.8 322.7L1045.7 326.7C1045.4 327.4 1045.3 328.2 1045.3 329 1045.3 331.2 1046.3 333.1 1047.9 334.4 1047.9 334.4 1048 334.5 1048 334.5 1048.3 334.8 1048.8 335 1049.3 335 1050.4 335 1051.3 334.1 1051.3 333 1051.3 332.3 1051 331.7 1050.5 331.4 1050 330.8 1049.5 330 1049.5 329 1049.5 327.3 1050.8 326 1052.5 326 1054.2 326 1055.5 327.3 1055.5 329L1055.5 335.3 1055.5 338 1055.5 364C1055.5 365.1 1056.4 366 1057.5 366 1058.6 366 1059.5 365.1 1059.5 364L1059.5 329C1059.5 325.1 1056.4 322 1052.5 322Z"/><path d="M1041 289C1041 293.418 1037.42 297 1033 297 1028.58 297 1025 293.418 1025 289 1025 284.582 1028.58 281 1033 281 1037.42 281 1041 284.582 1041 289Z"/></g></svg>