<svg width="96" height="96" xmlns="http://www.w3.org/2000/svg" xmlns:xlink="http://www.w3.org/1999/xlink" xml:space="preserve" overflow="hidden"><g transform="translate(-1024 -147)"><path d="M1097.9 149 1097.9 149C1098.6 151.6 1100.5 153.8 1103 155L1103 155C1100.5 156.2 1098.7 158.4 1097.9 161L1097.9 161C1097.2 158.4 1095.3 156.2 1092.8 155L1092.8 155C1095.3 153.8 1097.2 151.6 1097.9 149Z"/><path d="M1033.9 171 1033.9 171C1034.6 173.6 1036.5 175.8 1039 177L1039 177C1036.5 178.2 1034.7 180.4 1033.9 183L1033.9 183C1033.2 180.4 1031.3 178.2 1028.8 177L1028.8 177C1031.3 175.8 1033.2 173.6 1033.9 171Z"/><path d="M1043.8 151 1043.8 151C1044.4 153.2 1046 155 1048 156L1048 156C1045.9 157 1044.4 158.8 1043.8 161L1043.8 161C1043.2 158.8 1041.6 157 1039.6 156L1039.6 156C1041.6 155 1043.2 153.2 1043.8 151Z"/><path d="M1109.8 167 1109.8 167C1110.4 169.2 1112 171 1114 172L1114 172C1111.9 173 1110.4 174.8 1109.8 177L1109.8 177C1109.2 174.8 1107.6 173 1105.6 172L1105.6 172C1107.6 171 1109.2 169.2 1109.8 167Z"/><path d="M1072 186.5C1071.2 186.5 1070.5 185.8 1070.5 185L1070.5 175C1070.5 174.2 1071.2 173.5 1072 173.5 1072.8 173.5 1073.5 174.2 1073.5 175L1073.5 185C1073.5 185.8 1072.8 186.5 1072 186.5Z"/><path d="M1072 170.5C1071.2 170.5 1070.5 169.8 1070.5 169L1070.5 161C1070.5 160.2 1071.2 159.5 1072 159.5 1072.8 159.5 1073.5 160.2 1073.5 161L1073.5 169C1073.5 169.8 1072.8 170.5 1072 170.5Z"/><path d="M1072 156.5C1071.2 156.5 1070.5 155.8 1070.5 155L1070.5 151C1070.5 150.2 1071.2 149.5 1072 149.5 1072.8 149.5 1073.5 150.2 1073.5 151L1073.5 155C1073.5 155.8 1072.8 156.5 1072 156.5Z"/><path d="M1083 179.5C1082.9 179.5 1082.8 179.5 1082.7 179.5 1081.9 179.3 1081.4 178.5 1081.6 177.7L1083.3 169.9C1083.5 169.1 1084.3 168.6 1085.1 168.8 1085.9 169 1086.4 169.8 1086.2 170.6L1084.5 178.4C1084.3 179 1083.7 179.5 1083 179.5Z"/><path d="M1086 165.8C1085.9 165.8 1085.8 165.8 1085.7 165.8 1084.9 165.6 1084.4 164.8 1084.6 164L1084.6 164 1085.9 158.1C1086.1 157.3 1086.8 156.8 1087.7 156.9 1088.5 157.1 1089 157.8 1088.9 158.7 1088.9 158.7 1088.9 158.7 1088.9 158.8L1087.6 164.7C1087.3 165.3 1086.7 165.8 1086 165.8Z"/><path d="M1093 177.5C1092.2 177.5 1091.5 176.8 1091.5 176 1091.5 175.7 1091.6 175.4 1091.8 175.1L1098.6 165.2C1099.1 164.5 1100 164.4 1100.7 164.9 1101.3 165.4 1101.5 166.2 1101.1 166.9L1094.3 176.8C1094 177.3 1093.5 177.5 1093 177.5Z"/><path d="M1061 179.5C1060.3 179.5 1059.7 179 1059.5 178.3L1057.4 168.5C1057.2 167.7 1057.8 166.9 1058.6 166.7 1059.4 166.5 1060.2 167 1060.3 167.8L1062.4 177.6C1062.6 178.4 1062.1 179.2 1061.3 179.4 1061.2 179.5 1061.1 179.5 1061 179.5Z"/><path d="M1057.6 163.9C1056.9 163.9 1056.3 163.4 1056.1 162.7L1055.3 158.8C1055.1 158 1055.6 157.2 1056.4 157 1057.2 156.8 1058 157.3 1058.2 158.1 1058.2 158.1 1058.2 158.1 1058.2 158.2L1059 162.1C1059.2 162.9 1058.7 163.7 1057.9 163.9L1057.9 163.9C1057.8 163.9 1057.7 163.9 1057.6 163.9L1057.6 163.9Z"/><path d="M1051 177.5C1050.5 177.5 1050 177.3 1049.8 176.9L1043 167C1042.6 166.3 1042.8 165.4 1043.5 164.9 1044.2 164.5 1045 164.6 1045.5 165.3L1052.3 175.2C1052.8 175.9 1052.6 176.8 1051.9 177.3 1051.6 177.4 1051.3 177.5 1051 177.5Z"/><path d="M1115.8 228.9 1112.8 196.5C1112.7 195.5 1111.8 194.7 1110.8 194.7 1110.4 194.7 1109.8 194.7 1109.3 194.7L1108.8 188.9 1107 188.8C1105.5 188.7 1104 188.8 1102.6 188.9L1102.1 183.5 1100.6 183.2C1090.1 181.9 1079.6 185.4 1072 192.8 1064.4 185.4 1053.9 181.9 1043.4 183.2L1041.9 183.5 1041.4 188.9C1039.9 188.8 1038.5 188.7 1037 188.8L1035.3 188.9 1034.8 194.7C1034.2 194.7 1033.7 194.7 1033.3 194.7 1032.3 194.7 1031.4 195.5 1031.3 196.5L1028.3 228.9C1028.1 230 1028.9 231 1030 231.1 1030.1 231.1 1030.2 231.1 1030.3 231.1 1036.4 230.9 1053.5 231.3 1067.4 240.4 1068.1 240.8 1068.8 241.1 1069.6 241.1L1074.6 241.1C1075.4 241.1 1076.1 240.9 1076.7 240.5 1091.3 231.4 1107.9 231 1113.8 231.2 1114.9 231.2 1115.8 230.4 1115.9 229.3 1115.8 229 1115.8 229 1115.8 228.9ZM1074 196.4C1080.4 189.8 1089.3 186.4 1098.4 186.9L1101.1 217.9C1096.4 218.8 1084.2 221.8 1074 230.6L1074 196.4ZM1045.6 187C1054.7 186.5 1063.6 189.9 1070 196.5L1070 230.7C1059.8 221.9 1047.6 218.9 1042.9 218L1045.6 187ZM1036 224 1039 192.7C1039.6 192.7 1040.3 192.8 1041.1 192.8L1038.6 221.4 1040.5 221.6C1040.7 221.6 1057.6 223.8 1069.4 235.5L1069.4 235.5C1056.3 225.5 1041.7 224.2 1036 224ZM1074.6 235.7 1074.6 235.7C1086.6 223.9 1103.4 221.6 1103.5 221.6L1105.4 221.4 1102.9 192.8C1103.7 192.7 1104.4 192.7 1105 192.7L1108 224C1102.3 224.2 1087.7 225.6 1074.6 235.7Z"/></g></svg>