<svg width="96" height="96" xmlns="http://www.w3.org/2000/svg" xmlns:xlink="http://www.w3.org/1999/xlink" xml:space="preserve" overflow="hidden"><g transform="translate(-447 -106)"><path d="M496.4 151C499.2 151 501.4 148.8 501.4 146L501.4 134C501.4 131.2 499.2 129 496.4 129 493.6 129 491.4 131.2 491.4 134L491.4 146C491.4 148.8 493.7 151 496.4 151Z"/><path d="M484.4 151C487.2 151 489.4 148.8 489.4 146L489.4 134C489.4 131.2 487.2 129 484.4 129 481.6 129 479.4 131.2 479.4 134L479.4 146C479.4 148.8 481.7 151 484.4 151Z"/><path d="M508.4 151C511.2 151 513.4 148.8 513.4 146L513.4 134C513.4 131.2 511.2 129 508.4 129 505.6 129 503.4 131.2 503.4 134L503.4 146C503.4 148.8 505.7 151 508.4 151Z"/><path d="M514.4 152.9C514.2 152.1 514 151.3 513.9 150.5 511.4 153.5 507 153.9 504.1 151.4 503.5 150.9 503 150.3 502.5 149.6 500.5 152.9 496.2 154 492.9 152 491.9 151.4 491.1 150.6 490.5 149.6 488.5 152.9 484.2 154 480.9 152 478.8 150.7 477.5 148.5 477.5 146L477.5 134.8 469.6 120.7C468.3 118.2 465.3 117.2 462.8 118.5 462.7 118.5 462.7 118.6 462.6 118.6 460.1 120 459.2 123.1 460.5 125.6 460.5 125.6 460.5 125.6 460.5 125.6L471.3 145.2C471.6 152.3 472.6 170.8 481.1 175.3L481.1 194 508.3 194 508.3 176.9C516 172.5 521.2 164.9 525.3 158.3 528.7 153.1 531.7 148.1 535.1 147.3 537.7 146.6 539.2 143.9 538.5 141.3 538.5 141.3 538.5 141.3 538.5 141.3 537.8 138.7 535.2 137.2 532.7 137.9 532.7 137.9 532.6 137.9 532.6 137.9 526 139.8 519 145.8 514.6 152.6L514.4 152.9Z"/></g></svg>