<svg viewBox="0 0 96 96" xmlns="http://www.w3.org/2000/svg" xmlns:xlink="http://www.w3.org/1999/xlink" id="Icons_SunsetScene" overflow="hidden"><rect x="66" y="44" width="12" height="4"/><rect x="18" y="44" width="12" height="4"/><rect x="46" y="16" width="4" height="12"/><rect x="58.56" y="26.94" width="12.07" height="4.02" transform="matrix(0.707107 -0.707107 0.707107 0.707107 -1.55 54.15)"/><rect x="29.44" y="22.87" width="4.02" height="12.07" transform="matrix(0.707107 -0.707107 0.707107 0.707107 -11.23 30.71)"/><path d="M84 59.06C82.0866 58.2992 80.0576 57.8697 78 57.79 75.9424 57.8697 73.9134 58.2992 72 59.06 70.7262 59.5872 69.3753 59.9046 68 60L68 60C66.6247 59.9046 65.2738 59.5872 64 59.06 62.0866 58.2992 60.0576 57.8697 58 57.79 55.9424 57.8697 53.9134 58.2992 52 59.06 50.7262 59.5872 49.3753 59.9046 48 60 46.6247 59.9046 45.2738 59.5872 44 59.06 42.0866 58.2992 40.0576 57.8697 38 57.79 35.9424 57.8697 33.9134 58.2992 32 59.06 30.7261 59.5872 29.3753 59.9046 28 60 26.6247 59.9046 25.2739 59.5872 24 59.06 22.0866 58.2992 20.0576 57.8697 18 57.79 15.9424 57.8697 13.9134 58.2992 12 59.06 10.7261 59.5872 9.37533 59.9046 8 60L8 66C10.0576 65.9203 12.0866 65.4908 14 64.73 15.2704 64.1824 16.6213 63.8446 18 63.73 19.3787 63.8446 20.7296 64.1824 22 64.73 23.9134 65.4908 25.9424 65.9203 28 66 30.0576 65.9203 32.0866 65.4908 34 64.73 35.2704 64.1824 36.6213 63.8446 38 63.73 39.3753 63.8254 40.7262 64.1428 42 64.67 43.9084 65.4559 45.9383 65.9059 48 66 50.0576 65.9203 52.0866 65.4908 54 64.73 55.2704 64.1824 56.6213 63.8447 58 63.73 59.3787 63.8447 60.7296 64.1824 62 64.73 63.9134 65.4908 65.9424 65.9203 68 66 70.0576 65.9203 72.0866 65.4908 74 64.73 75.2704 64.1824 76.6213 63.8447 78 63.73 79.3753 63.8254 80.7262 64.1428 82 64.67 83.9084 65.4559 85.9383 65.9059 88 66L88 60C86.6247 59.9046 85.2738 59.5872 84 59.06Z"/><path d="M38 51.79C40.0576 51.8697 42.0866 52.2992 44 53.06 45.2738 53.5872 46.6247 53.9046 48 54 49.3753 53.9046 50.7262 53.5872 52 53.06 53.9134 52.2992 55.9424 51.8697 58 51.79 59.0529 51.8327 60.1002 51.9665 61.13 52.19 64.8417 44.9385 61.972 36.0511 54.7205 32.3395 47.469 28.6278 38.5816 31.4974 34.87 38.7489 32.71 42.969 32.71 47.97 34.87 52.19 35.8998 51.9665 36.9471 51.8327 38 51.79Z"/><path d="M84 72.06C82.0866 71.2992 80.0576 70.8697 78 70.79 75.9424 70.8697 73.9134 71.2992 72 72.06 70.7262 72.5872 69.3753 72.9046 68 73L68 73C66.6247 72.9046 65.2738 72.5872 64 72.06 62.0866 71.2992 60.0576 70.8697 58 70.79 55.9424 70.8697 53.9134 71.2992 52 72.06 50.7262 72.5872 49.3753 72.9046 48 73 46.6247 72.9046 45.2738 72.5872 44 72.06 42.0866 71.2992 40.0576 70.8697 38 70.79 35.9424 70.8697 33.9134 71.2992 32 72.06 30.7261 72.5872 29.3753 72.9046 28 73 26.6247 72.9046 25.2739 72.5872 24 72.06 22.0866 71.2992 20.0576 70.8697 18 70.79 15.9424 70.8697 13.9134 71.2992 12 72.06 10.7261 72.5872 9.37533 72.9046 8 73L8 79C10.0576 78.9203 12.0866 78.4908 14 77.73 15.2704 77.1824 16.6213 76.8446 18 76.73 19.3787 76.8446 20.7296 77.1824 22 77.73 23.9134 78.4908 25.9424 78.9203 28 79 30.0576 78.9203 32.0866 78.4908 34 77.73 35.2704 77.1824 36.6213 76.8446 38 76.73 39.3753 76.8254 40.7262 77.1428 42 77.67 43.9084 78.4559 45.9383 78.9059 48 79 50.0576 78.9203 52.0866 78.4908 54 77.73 55.2704 77.1824 56.6213 76.8447 58 76.73 59.3787 76.8447 60.7296 77.1824 62 77.73 63.9134 78.4908 65.9424 78.9203 68 79 70.0576 78.9203 72.0866 78.4908 74 77.73 75.2704 77.1824 76.6213 76.8447 78 76.73 79.3753 76.8254 80.7262 77.1428 82 77.67 83.9084 78.4559 85.9383 78.9059 88 79L88 73C86.6247 72.9046 85.2738 72.5872 84 72.06Z"/></svg>