<svg width="96" height="96" xmlns="http://www.w3.org/2000/svg" xmlns:xlink="http://www.w3.org/1999/xlink" xml:space="preserve" overflow="hidden"><g transform="translate(-33 -291)"><path d="M53.9 348.6 73.1 329.4 62.4 329.4C65.9 322.6 73 317.9 81.2 317.9 86.5 317.9 91.4 319.9 95.1 323.2L114.6 323.2C108.7 310.6 95.9 302 81.2 302 64.1 302 49.7 313.6 45.5 329.4L34.7 329.4 53.9 348.6Z"/><path d="M127.6 348.6 108.4 329.4 89.2 348.6 100 348.6C96.5 355.4 89.4 360.1 81.2 360.1 75.9 360.1 71 358.1 67.3 354.8L47.7 354.8C53.7 367.4 66.4 376 81.2 376 98.3 376 112.7 364.4 116.9 348.6L127.6 348.6Z"/></g></svg>