<svg width="96" height="96" xmlns="http://www.w3.org/2000/svg" xmlns:xlink="http://www.w3.org/1999/xlink" xml:space="preserve" overflow="hidden"><g transform="translate(-592 -312)"><path d="M622.042 349.968 625.712 349.968 616.88 329 608.025 349.968 611.696 349.968 605.731 362.425 614.586 362.425 614.586 368 619.174 368 619.174 362.425 628.006 362.425 622.042 349.968 622.042 349.968Z"/><path d="M677.795 334.784 680.383 334.784 674.155 320 667.912 334.784 670.5 334.784 666.294 343.568 672.538 343.568 672.538 347.498 675.773 347.498 675.773 343.568 682 343.568 677.795 334.784 677.795 334.784Z"/><path d="M646.855 341.619C651.048 344.457 662.263 349.896 664.162 351.248 666.818 353.138 675.446 357.393 668.808 368.905 662.17 380.417 656.022 388.9 651.952 395L597.006 395C610.668 383.785 631.7 374.531 640.791 367.973 649.882 361.415 650.375 356.461 646.006 351 642.006 346 638.418 344.591 636.948 341.58 634.331 336.222 643.782 333.954 647.006 334 647.397 334 651.006 334 651.006 334 651.006 334 642.661 338.782 646.855 341.619Z"/></g></svg>