<svg viewBox="0 0 96 96" xmlns="http://www.w3.org/2000/svg" xmlns:xlink="http://www.w3.org/1999/xlink" id="Icons_AlarmRinging" overflow="hidden"><path d="M26.027 52C26.027 39.8497 35.8767 30 48.027 30 60.1773 30 70.027 39.8497 70.027 52 70.027 64.1503 60.1773 74 48.027 74 35.8916 73.9643 26.0627 64.1354 26.027 52ZM50.027 24.1 50.027 20 54.027 20C55.1316 20 56.027 19.1046 56.027 18 56.027 16.8954 55.1316 16 54.027 16L42.027 16C40.9224 16 40.027 16.8954 40.027 18 40.027 19.1046 40.9224 20 42.027 20L46.027 20 46.027 24.1C30.6118 25.1948 19.0028 38.5788 20.0976 53.994 20.568 60.6176 23.3786 66.8581 28.027 71.6L24.227 79.1C23.7269 80.0848 24.1198 81.2887 25.1046 81.7888 25.1121 81.7926 25.1195 81.7963 25.127 81.8 25.4145 81.9139 25.7183 81.9814 26.027 82 26.7806 81.9817 27.467 81.5622 27.827 80.9L31.127 74.3C41.1116 81.9012 54.9424 81.9012 64.927 74.3L68.227 80.9C68.587 81.5622 69.2734 81.9817 70.027 82 70.3357 81.9814 70.6395 81.9139 70.927 81.8 71.918 81.3122 72.326 80.1134 71.8382 79.1224 71.8345 79.1149 71.8308 79.1074 71.827 79.1L68.027 71.6C78.8453 60.5641 78.6689 42.8478 67.633 32.0294 62.8911 27.381 56.6506 24.5704 50.027 24.1Z"/><path d="M46.027 50 32.027 50 32.027 54 48.027 54C49.1302 53.9967 50.0237 53.1032 50.027 52L50.027 36 46.027 36Z"/><path d="M80.227 24.2 71.927 15.9C70.3895 14.326 67.8672 14.2964 66.2932 15.8338 66.2709 15.8556 66.2488 15.8777 66.227 15.9L61.027 21 75.027 35 80.227 29.8C81.727 28.2347 81.727 25.7653 80.227 24.2Z"/><path d="M35.027 21 29.827 15.8C28.2895 14.226 25.7672 14.1964 24.1932 15.7338 24.1708 15.7556 24.1488 15.7777 24.127 15.8L15.827 24.1C14.253 25.6375 14.2234 28.1598 15.7608 29.7338 15.7826 29.7562 15.8047 29.7782 15.827 29.8L21.027 35Z"/><path d="M14.2 60.4 17 57.6C13.9333 54.4187 13.9333 49.3813 17 46.2L14.2 43.4C9.5331 48.1058 9.5331 55.6942 14.2 60.4Z"/><path d="M8.6 66 11.4 63.2C5.15918 56.9956 5.12962 46.9068 11.334 40.666 11.3559 40.6439 11.3779 40.6219 11.4 40.6L8.6 37.8C0.812785 45.4772 0.723564 58.0135 8.40072 65.8007 8.46667 65.8676 8.5331 65.934 8.6 66Z"/><path d="M81.5 60.4 78.7 57.6C81.7667 54.4187 81.7667 49.3813 78.7 46.2L81.5 43.4C86.1669 48.1058 86.1669 55.6942 81.5 60.4Z"/><path d="M87.1 66 84.3 63.2C90.5408 56.9956 90.5704 46.9068 84.366 40.666 84.3441 40.6439 84.3221 40.6219 84.3 40.6L87.1 37.8C94.8872 45.4772 94.9764 58.0135 87.2993 65.8007 87.2333 65.8676 87.1669 65.934 87.1 66Z"/></svg>