<svg width="96" height="96" xmlns="http://www.w3.org/2000/svg" xmlns:xlink="http://www.w3.org/1999/xlink" xml:space="preserve" overflow="hidden"><g transform="translate(-970 -400)"><path d="M1004.59 464.41 993.17 453 1004.59 441.59 1007.41 444.41 998.83 453 1007.41 461.59 1004.59 464.41Z"/><path d="M1031.41 464.41 1028.59 461.59 1037.17 453 1028.59 444.41 1031.41 441.59 1042.83 453 1031.41 464.41Z"/><path d="M1011.3 464.322 1020.87 441.236 1024.56 442.767 1015 465.853Z"/><path d="M978 417 978 479 1058 479 1058 417ZM1047 423C1048.1 423 1049 423.895 1049 425 1049 426.105 1048.1 427 1047 427 1045.9 427 1045 426.105 1045 425 1045 423.895 1045.9 423 1047 423ZM1040 423C1041.1 423 1042 423.895 1042 425 1042 426.105 1041.1 427 1040 427 1038.9 427 1038 426.105 1038 425 1038 423.895 1038.9 423 1040 423ZM1033 423C1034.1 423 1035 423.895 1035 425 1035 426.105 1034.1 427 1033 427 1031.9 427 1031 426.105 1031 425 1031 423.895 1031.9 423 1033 423ZM1052 473 984 473 984 433 1052 433Z"/></g></svg>